<?xml version="1.0" encoding="UTF-8" standalone="no"?>
<!-- Created with Inkscape (http://www.inkscape.org/) -->

<svg
   xmlns:dc="http://purl.org/dc/elements/1.1/"
   xmlns:cc="http://creativecommons.org/ns#"
   xmlns:rdf="http://www.w3.org/1999/02/22-rdf-syntax-ns#"
   xmlns:svg="http://www.w3.org/2000/svg"
   xmlns="http://www.w3.org/2000/svg"
   xmlns:xlink="http://www.w3.org/1999/xlink"
   xmlns:sodipodi="http://sodipodi.sourceforge.net/DTD/sodipodi-0.dtd"
   xmlns:inkscape="http://www.inkscape.org/namespaces/inkscape"
   id="svg2"
   version="1.1"
   inkscape:version="0.91 r13725"
   width="663.61145"
   height="400.00012"
   viewBox="0 0 663.61145 400.00012"
   sodipodi:docname="AJAX.svg">
  <metadata
     id="metadata8">
    <rdf:RDF>
      <cc:Work
         rdf:about="">
        <dc:format>image/svg+xml</dc:format>
        <dc:type
           rdf:resource="http://purl.org/dc/dcmitype/StillImage" />
        <dc:title></dc:title>
      </cc:Work>
    </rdf:RDF>
  </metadata>
  <defs
     id="defs6">
    <linearGradient
       inkscape:collect="always"
       id="linearGradient4222">
      <stop
         style="stop-color:#70b0df;stop-opacity:1"
         offset="0"
         id="stop4224" />
      <stop
         id="stop4230"
         offset="0.5"
         style="stop-color:#1b81c5;stop-opacity:1" />
      <stop
         style="stop-color:#4a98ce;stop-opacity:1"
         offset="1"
         id="stop4226" />
    </linearGradient>
    <linearGradient
       inkscape:collect="always"
       xlink:href="#linearGradient4222"
       id="linearGradient4228"
       x1="162.67442"
       y1="14.452718"
       x2="162.67442"
       y2="175.03487"
       gradientUnits="userSpaceOnUse" />
  </defs>
  <sodipodi:namedview
     pagecolor="#ffffff"
     bordercolor="#666666"
     borderopacity="1"
     objecttolerance="10"
     gridtolerance="10"
     guidetolerance="10"
     inkscape:pageopacity="0"
     inkscape:pageshadow="2"
     inkscape:window-width="1366"
     inkscape:window-height="715"
     id="namedview4"
     showgrid="false"
     showguides="true"
     inkscape:guide-bbox="true"
     inkscape:snap-bbox="true"
     inkscape:bbox-paths="true"
     inkscape:bbox-nodes="true"
     inkscape:snap-bbox-edge-midpoints="true"
     inkscape:snap-bbox-midpoints="true"
     inkscape:zoom="0.52835716"
     inkscape:cx="103.68325"
     inkscape:cy="158.90954"
     inkscape:window-x="-8"
     inkscape:window-y="22"
     inkscape:window-maximized="1"
     inkscape:current-layer="svg2"
     inkscape:snap-global="false"
     fit-margin-top="100"
     fit-margin-left="100"
     fit-margin-right="100"
     fit-margin-bottom="100" />
  <g
     id="g3344"
     transform="matrix(1.2341807,0,0,1.2341807,85.412379,80.894415)">
    <g
       transform="translate(0,2)"
       style="fill:#8c96a1;fill-opacity:1"
       id="g4204">
      <path
         inkscape:connector-curvature="0"
         id="path4206"
         d="m 48.822266,90.923828 -36.617188,82.017582 23.949219,0 7.119141,-17.38282 36.802734,0 7.11914,17.38282 23.949218,0 -36.708983,-82.017582 -25.613281,0 z m 13.005859,19.337892 6.212891,15.5957 6.21289,15.59766 -12.388672,0.0293 -12.388672,0.0312 6.175782,-15.62695 6.175781,-15.62695 z"
         style="fill:#8c96a1;fill-opacity:1;fill-rule:evenodd;stroke:none;stroke-width:1px;stroke-linecap:butt;stroke-linejoin:miter;stroke-opacity:1" />
      <path
         inkscape:connector-curvature="0"
         style="fill:#8c96a1;fill-opacity:1;fill-rule:evenodd;stroke:none;stroke-width:1px;stroke-linecap:butt;stroke-linejoin:miter;stroke-opacity:1"
         d="m 226.42503,90.923828 -36.61718,82.017582 23.94922,0 7.11914,-17.38282 36.80273,0 7.11914,17.38282 23.94922,0 -36.70898,-82.017582 -25.61329,0 z m 13.00586,19.337892 6.21289,15.5957 6.21289,15.59766 -12.38867,0.0293 -12.38867,0.0312 6.17578,-15.62695 6.17578,-15.62695 z"
         id="path4208" />
      <path
         inkscape:connector-curvature="0"
         id="path4210"
         d="m 295.01111,90.641009 27.19958,0 17.39204,26.153451 18.43818,-26.153451 26.80728,0 -32.29951,39.753241 34.39178,42.82998 -27.19958,0 -19.74585,-27.92252 -19.35355,27.92252 -29.03032,0 35.04561,-42.43768 z"
         style="fill:#8c96a1;fill-opacity:1;fill-rule:evenodd;stroke:none;stroke-width:1px;stroke-linecap:butt;stroke-linejoin:miter;stroke-opacity:1" />
      <path
         inkscape:connector-curvature="0"
         id="path4212"
         d="m 179.94141,55.929688 -32.56055,32.02539 11.20898,10.142578 10.60352,-10.660156 1.18359,0.002 0,61.1543 c 0,7.76349 -6.25018,14.01367 -14.01367,14.01367 l -11.13476,0 c -7.76349,0 -14.01368,-6.25018 -14.01368,-14.01367 l 0,-6.52734 -21.65039,0 0,8.1289 c 0,14.03603 11.29991,25.33594 25.33594,25.33594 l 28.76563,0 c 14.03602,0 25.33593,-11.29991 25.33593,-25.33594 l 0,-62.712891 0.83789,0.002 12.38672,10.613281 9.74024,-10.142578 -32.02539,-32.02539 z"
         style="color:#000000;clip-rule:nonzero;display:inline;overflow:visible;visibility:visible;opacity:1;isolation:auto;mix-blend-mode:normal;color-interpolation:sRGB;color-interpolation-filters:linearRGB;solid-color:#000000;solid-opacity:1;fill:#8c96a1;fill-opacity:1;fill-rule:nonzero;stroke:none;stroke-width:4.5;stroke-linecap:round;stroke-linejoin:miter;stroke-miterlimit:4;stroke-dasharray:none;stroke-dashoffset:0;stroke-opacity:1;marker:none;color-rendering:auto;image-rendering:auto;shape-rendering:auto;text-rendering:auto;enable-background:accumulate" />
      <path
         inkscape:connector-curvature="0"
         style="color:#000000;clip-rule:nonzero;display:inline;overflow:visible;visibility:visible;opacity:1;isolation:auto;mix-blend-mode:normal;color-interpolation:sRGB;color-interpolation-filters:linearRGB;solid-color:#000000;solid-opacity:1;fill:#8c96a1;fill-opacity:1;fill-rule:nonzero;stroke:none;stroke-width:4.5;stroke-linecap:round;stroke-linejoin:miter;stroke-miterlimit:4;stroke-dasharray:none;stroke-dashoffset:0;stroke-opacity:1;marker:none;color-rendering:auto;image-rendering:auto;shape-rendering:auto;text-rendering:auto;enable-background:accumulate"
         d="m 120.2293,135.33257 32.56055,-32.02539 -11.20898,-10.142583 -10.60352,10.660153 -1.18359,-0.002 0,-61.154295 c 0,-7.76349 6.25018,-14.01367 14.01367,-14.01367 l 11.13476,0 c 7.76349,0 14.01368,6.25018 14.01368,14.01367 l 0,6.52734 21.65039,0 0,-8.1289 c 0,-14.03603 -11.29991,-25.33594 -25.33594,-25.33594 l -28.76563,0 c -14.03602,0 -25.33593,11.29991 -25.33593,25.33594 l 0,62.712895 -0.83789,-0.002 -12.386718,-10.613293 -9.74024,10.142583 32.025388,32.02539 z"
         id="path4214" />
    </g>
    <path
       id="path3338"
       d="m 136.50391,15.730469 c -14.03602,0 -25.33594,11.299907 -25.33594,25.335937 l 0,62.712894 -0.83789,-0.002 -12.386721,-10.613278 -9.740234,10.142578 32.025395,32.02539 32.56054,-32.02539 -11.20898,-10.142578 -10.60352,10.660158 -1.18359,-0.002 0,-61.154301 c 0,-7.76349 6.25018,-14.013672 14.01367,-14.013672 l 11.13477,0 c 7.76349,0 14.01367,6.250182 14.01367,14.013672 l 0,6.527343 21.65039,0 0,-8.128906 c 0,-14.03603 -11.29991,-25.335937 -25.33594,-25.335937 l -28.76562,0 z m 43.4375,40.199219 -32.56055,32.02539 11.20898,10.142578 10.60352,-10.660156 1.18359,0.002 0,61.1543 c 0,7.76349 -6.25018,14.01367 -14.01367,14.01367 l -11.13476,0 c -7.76349,0 -14.01368,-6.25018 -14.01368,-14.01367 l 0,-6.52734 -21.65039,0 0,8.1289 c 0,14.03603 11.29991,25.33594 25.33594,25.33594 l 28.76563,0 c 14.03602,0 25.33593,-11.29991 25.33593,-25.33594 l 0,-62.712891 0.83789,0.002 12.38672,10.613281 9.74024,-10.142578 -32.02539,-32.02539 z m 115.07031,34.710937 31.64453,40.146485 -35.04492,42.4375 29.02929,0 19.35352,-27.92383 19.74609,27.92383 27.20118,0 -34.39258,-42.83008 32.29883,-39.753905 -26.80664,0 -18.4375,26.154295 -17.39258,-26.154295 -27.19922,0 z m -246.189454,0.283203 -36.617188,82.017582 23.949219,0 7.119141,-17.38282 36.802734,0 7.11914,17.38282 23.949218,0 -36.708983,-82.017582 -25.613281,0 z m 177.603514,0 -36.61719,82.017582 23.94922,0 7.11914,-17.38282 36.80274,0 7.11914,17.38282 23.94922,0 -36.70899,-82.017582 -25.61328,0 z m -164.597655,19.337892 6.212891,15.5957 6.21289,15.59766 -12.388672,0.0293 -12.388672,0.0312 6.175782,-15.62695 6.175781,-15.62695 z m 177.603515,0 6.21289,15.5957 6.21289,15.59766 -12.38867,0.0293 -12.38867,0.0312 6.17578,-15.62695 6.17578,-15.62695 z"
       style="fill:url(#linearGradient4228);fill-opacity:1;fill-rule:evenodd;stroke:#0c4c75;stroke-width:0.5;stroke-linecap:butt;stroke-linejoin:miter;stroke-miterlimit:4;stroke-dasharray:none;stroke-opacity:1"
       inkscape:connector-curvature="0" />
  </g>
</svg>
