<?xml version="1.0" encoding="utf-8"?>
<!-- Svg Vector Icons : http://www.onlinewebfonts.com/icon -->
<!DOCTYPE svg PUBLIC "-//W3C//DTD SVG 1.1//EN" "http://www.w3.org/Graphics/SVG/1.1/DTD/svg11.dtd">
<svg version="1.1" xmlns="http://www.w3.org/2000/svg" xmlns:xlink="http://www.w3.org/1999/xlink" x="0px" y="0px" viewBox="0 0 1000 1000" enable-background="new 0 0 1000 1000" xml:space="preserve">
<metadata> Svg Vector Icons : http://www.onlinewebfonts.com/icon </metadata>
<g><g><g><g><path d="M942.5,77.2H57.5C31.2,77.2,10,98.5,10,124.7V680c0,26.2,21.2,47.5,47.5,47.5h331V835H259.7c-24.2,0-43.9,19.7-43.9,43.9c0,24.2,19.7,43.9,43.9,43.9h480.7c24.2,0,43.9-19.7,43.9-43.9c0-24.2-19.7-43.9-43.9-43.9H611.5V727.4h331c26.2,0,47.5-21.2,47.5-47.5V124.7C990,98.5,968.8,77.2,942.5,77.2z M918.8,656.2H81.2V148.4h837.6V656.2z"/><path d="M234.5,429.1l149.7,69.6c3.9,1.8,8,2.7,12.2,2.7c5.5,0,11-1.6,15.7-4.6c8.4-5.4,13.4-14.5,13.4-24.5v-0.8c0-11.3-6.6-21.6-16.8-26.4L315,401.7l93.6-43.5c10.2-4.8,16.8-15.1,16.8-26.4v-0.8c0-10-5-19.2-13.4-24.5c-4.7-3-10.1-4.5-15.7-4.5c-4.2,0-8.5,0.9-12.2,2.7l-149.7,69.6c-10.2,4.8-16.8,15.1-16.8,26.4v2.1C217.6,414,224.2,424.4,234.5,429.1z"/><path d="M426.8,570.9c5.5,7.5,14.2,11.9,23.5,11.9h0.7c12.7,0,23.8-8.1,27.7-20.2l98.6-305.5c2.8-8.8,1.3-18.6-4.2-26c-5.5-7.5-14.2-11.9-23.5-11.9h-0.7c-12.7,0-23.8,8.1-27.7,20.2l-98.6,305.6C419.8,553.7,421.4,563.5,426.8,570.9z"/><path d="M574.5,331.8c0,11.3,6.6,21.6,16.8,26.4l93.6,43.5l-93.6,43.5c-10.2,4.8-16.8,15.1-16.8,26.4v0.8c0,10,5,19.1,13.5,24.5c4.7,3,10.1,4.6,15.6,4.6c4.3,0,8.4-0.9,12.3-2.7l149.7-69.6c10.2-4.8,16.8-15.1,16.8-26.4v-2.1c0-11.3-6.6-21.6-16.8-26.4l-149.7-69.6c-3.8-1.8-8-2.7-12.2-2.7c-5.6,0-11,1.6-15.7,4.5c-8.4,5.4-13.5,14.5-13.5,24.5V331.8L574.5,331.8z"/></g></g></g><g></g><g></g><g></g><g></g><g></g><g></g><g></g><g></g><g></g><g></g><g></g><g></g><g></g><g></g><g></g></g>
</svg>